<svg width="35" height="35" viewBox="0 0 35 35" fill="none" xmlns="http://www.w3.org/2000/svg">
<path d="M26.6156 23.248C30.2053 17.7977 28.697 10.4695 23.2467 6.8798C17.7965 3.29014 10.4682 4.79843 6.87856 10.2487C3.2889 15.6989 4.79719 23.0272 10.2474 26.6168C15.6977 30.2065 23.0259 28.6982 26.6156 23.248Z" fill="white" stroke="black" stroke-width="0.7"/>
<path d="M24.5417 21.8828C27.3767 17.5783 26.1855 11.7905 21.881 8.95546C17.5765 6.1204 11.7887 7.31163 8.95365 11.6161C6.11858 15.9207 7.30981 21.7084 11.6143 24.5435C15.9188 27.3786 21.7066 26.1873 24.5417 21.8828Z" fill="white" stroke="black" stroke-width="0.7"/>
<path d="M22.3918 20.4654C24.4438 17.3499 23.5816 13.161 20.4662 11.1091C17.3507 9.05717 13.1617 9.91933 11.1098 13.0348C9.05793 16.1502 9.9201 20.3392 13.0355 22.3911C16.151 24.443 20.3399 23.5808 22.3918 20.4654Z" fill="white" stroke="black" stroke-width="0.7"/>
<path d="M7.78516 24.5572L17.3176 10.084" stroke="black" stroke-width="0.7"/>
<path d="M10.832 23.9311L19.543 10.7051" stroke="black" stroke-width="0.7"/>
<path d="M14.1758 22.8507L22.9226 9.57031" stroke="black" stroke-width="0.7"/>
<path d="M16.3008 23.5752L25.6869 9.32422" stroke="black" stroke-width="0.7"/>
<path d="M15.3136 13.7641L8.39062 24.2754L9.6394 25.0979L16.5624 14.5866L15.3136 13.7641Z" fill="white"/>
<path d="M21.115 8.96253L14.0898 19.6289L15.345 20.4556L22.3701 9.78919L21.115 8.96253Z" fill="white"/>
<path d="M23.4798 9.37739L16.4141 20.1055L17.6336 20.9087L24.6994 10.1806L23.4798 9.37739Z" fill="white"/>
</svg>
