<svg width="161" height="20" viewBox="0 0 161 20" fill="none" xmlns="http://www.w3.org/2000/svg">
<path d="M6.40625 5.30078L5.29883 5.95703C5.0918 5.59766 4.89453 5.36328 4.70703 5.25391C4.51172 5.12891 4.25977 5.06641 3.95117 5.06641C3.57227 5.06641 3.25781 5.17383 3.00781 5.38867C2.75781 5.59961 2.63281 5.86523 2.63281 6.18555C2.63281 6.62695 2.96094 6.98242 3.61719 7.25195L4.51953 7.62109C5.25391 7.91797 5.79102 8.28125 6.13086 8.71094C6.4707 9.13672 6.64062 9.66016 6.64062 10.2812C6.64062 11.1133 6.36328 11.8008 5.80859 12.3438C5.25 12.8906 4.55664 13.1641 3.72852 13.1641C2.94336 13.1641 2.29492 12.9316 1.7832 12.4668C1.2793 12.002 0.964844 11.3477 0.839844 10.5039L2.22266 10.1992C2.28516 10.7305 2.39453 11.0977 2.55078 11.3008C2.83203 11.6914 3.24219 11.8867 3.78125 11.8867C4.20703 11.8867 4.56055 11.7441 4.8418 11.459C5.12305 11.1738 5.26367 10.8125 5.26367 10.375C5.26367 10.1992 5.23828 10.0391 5.1875 9.89453C5.14062 9.74609 5.06445 9.61133 4.95898 9.49023C4.85742 9.36523 4.72461 9.25 4.56055 9.14453C4.39648 9.03516 4.20117 8.93164 3.97461 8.83398L3.10156 8.4707C1.86328 7.94727 1.24414 7.18164 1.24414 6.17383C1.24414 5.49414 1.50391 4.92578 2.02344 4.46875C2.54297 4.00781 3.18945 3.77734 3.96289 3.77734C5.00586 3.77734 5.82031 4.28516 6.40625 5.30078ZM13.2324 10.457H9.14258C9.17773 10.9258 9.33008 11.2988 9.59961 11.5762C9.86914 11.8496 10.2148 11.9863 10.6367 11.9863C10.9648 11.9863 11.2363 11.9082 11.4512 11.752C11.6621 11.5957 11.9023 11.3066 12.1719 10.8848L13.2852 11.5059C13.1133 11.7988 12.9316 12.0508 12.7402 12.2617C12.5488 12.4688 12.3438 12.6406 12.125 12.7773C11.9062 12.9102 11.6699 13.0078 11.416 13.0703C11.1621 13.1328 10.8867 13.1641 10.5898 13.1641C9.73828 13.1641 9.05469 12.8906 8.53906 12.3438C8.02344 11.793 7.76562 11.0625 7.76562 10.1523C7.76562 9.25 8.01562 8.51953 8.51562 7.96094C9.01953 7.41016 9.6875 7.13477 10.5195 7.13477C11.3594 7.13477 12.0234 7.40234 12.5117 7.9375C12.9961 8.46875 13.2383 9.20508 13.2383 10.1465L13.2324 10.457ZM11.8789 9.37891C11.6953 8.67578 11.252 8.32422 10.5488 8.32422C10.3887 8.32422 10.2383 8.34961 10.0977 8.40039C9.95703 8.44727 9.82812 8.51758 9.71094 8.61133C9.59766 8.70117 9.5 8.81055 9.41797 8.93945C9.33594 9.06836 9.27344 9.21484 9.23047 9.37891H11.8789ZM18.8867 7.29297H20.2109V13H18.8867V12.4023C18.3438 12.9102 17.7598 13.1641 17.1348 13.1641C16.3457 13.1641 15.6934 12.8789 15.1777 12.3086C14.666 11.7266 14.4102 11 14.4102 10.1289C14.4102 9.27344 14.666 8.56055 15.1777 7.99023C15.6895 7.41992 16.3301 7.13477 17.0996 7.13477C17.7637 7.13477 18.3594 7.4082 18.8867 7.95508V7.29297ZM15.7578 10.1289C15.7578 10.6758 15.9043 11.1211 16.1973 11.4648C16.498 11.8125 16.877 11.9863 17.334 11.9863C17.8223 11.9863 18.2168 11.8184 18.5176 11.4824C18.8184 11.1348 18.9688 10.6934 18.9688 10.1582C18.9688 9.62305 18.8184 9.18164 18.5176 8.83398C18.2168 8.49414 17.8262 8.32422 17.3457 8.32422C16.8926 8.32422 16.5137 8.49609 16.209 8.83984C15.9082 9.1875 15.7578 9.61719 15.7578 10.1289ZM21.875 7.29297H23.1934V7.80273C23.4355 7.54883 23.6504 7.375 23.8379 7.28125C24.0293 7.18359 24.2559 7.13477 24.5176 7.13477C24.8652 7.13477 25.2285 7.24805 25.6074 7.47461L25.0039 8.68164C24.7539 8.50195 24.5098 8.41211 24.2715 8.41211C23.5527 8.41211 23.1934 8.95508 23.1934 10.041V13H21.875V7.29297ZM30.6992 7.53906V9.29102C30.3984 8.92383 30.1289 8.67188 29.8906 8.53516C29.6562 8.39453 29.3809 8.32422 29.0645 8.32422C28.5684 8.32422 28.1562 8.49805 27.8281 8.8457C27.5 9.19336 27.3359 9.62891 27.3359 10.1523C27.3359 10.6875 27.4941 11.127 27.8105 11.4707C28.1309 11.8145 28.5391 11.9863 29.0352 11.9863C29.3516 11.9863 29.6309 11.918 29.873 11.7812C30.1074 11.6484 30.3828 11.3906 30.6992 11.0078V12.748C30.1641 13.0254 29.6289 13.1641 29.0938 13.1641C28.2109 13.1641 27.4727 12.8789 26.8789 12.3086C26.2852 11.7344 25.9883 11.0215 25.9883 10.1699C25.9883 9.31836 26.2891 8.59961 26.8906 8.01367C27.4922 7.42773 28.2305 7.13477 29.1055 7.13477C29.668 7.13477 30.1992 7.26953 30.6992 7.53906ZM32.293 3.10352H33.6113V7.76758C34.0801 7.3457 34.5977 7.13477 35.1641 7.13477C35.8086 7.13477 36.3242 7.34375 36.7109 7.76172C37.0391 8.125 37.2031 8.70508 37.2031 9.50195V13H35.8848V9.625C35.8848 9.16797 35.8027 8.83789 35.6387 8.63477C35.4785 8.42773 35.2188 8.32422 34.8594 8.32422C34.3984 8.32422 34.0742 8.4668 33.8867 8.75195C33.7031 9.04102 33.6113 9.53711 33.6113 10.2402V13H32.293V3.10352Z" fill="black"/>
<line y1="19.2539" x2="160.41" y2="19.2539" stroke="black"/>
</svg>
