<svg width="12" height="13" viewBox="0 0 12 13" fill="none" xmlns="http://www.w3.org/2000/svg">
<path fill-rule="evenodd" clip-rule="evenodd" d="M9.12798 3.8392L9.09549 5.05737V5.08985L8.8681 12.139H10.9958L10.5411 3.8392H9.12798ZM9.09549 2.58854V3.23823H11.0933L11.6131 12.7238H0.210938L0.730692 3.23823H2.25747V2.58854C2.25747 0.801879 4.12534 -0.3026 5.66836 0.428305C7.22762 -0.3026 9.09549 0.801879 9.09549 2.58854ZM8.51077 5.08985V3.8392H7.04896V5.08985H6.44799V3.8392H4.88873V5.08985H4.28776V3.8392H2.8422V5.08985H2.24123V3.8392H1.26669L0.811904 12.139H8.25089L8.51077 5.08985ZM8.49453 3.25447V2.60478C8.49453 1.43533 7.39005 0.590729 6.28557 0.850606C6.7566 1.27291 7.04896 1.90636 7.04896 2.58854V3.23823H8.49453V3.25447ZM5.6846 1.11048C5.21358 1.43533 4.90497 1.98757 4.90497 2.58854V3.23823H6.46424V2.58854C6.46424 1.98757 6.15563 1.43533 5.6846 1.11048ZM4.30401 3.25447V2.60478C4.30401 1.9226 4.59637 1.28915 5.06739 0.850606C3.96292 0.574486 2.85844 1.43533 2.85844 2.58854V3.23823H4.30401V3.25447Z" fill="black" stroke="black" stroke-width="0.4"/>
</svg>
